# xmcd CD database file
#
# Track frame offsets:
#	150
#	3699
#	21679
#	43626
#	54361
#	70513
#	87384
#	98379
#	122762
#	138898
#	155001
#
# Disc length: 2364 seconds
#
# Revision: 1
# Processed by: cddbd v1.4PL0 Copyright (c) Steve Scherf et al.
# Submitted via: CDex 1.50Beta7
#
DISCID=8a093a0b
DTITLE=Jean Luc Ponty - Enigmatic Ocean
DYEAR=1900
DGENRE=Jazz
TTITLE0=Overture
TTITLE1=The Trans-Love Express
TTITLE2=Mirage
TTITLE3=Enigmatic Ocean Part I
TTITLE4=Enigmatic Ocean Part II
TTITLE5=Enigmatic Ocean Part III
TTITLE6=Enigmatic Ocean Part IV
TTITLE7=Nostalgic Lady
TTITLE8=The Struggle Of The Turtle To The Sea Part I
TTITLE9=The Struggle Of The Turtle To The Sea Part II
TTITLE10=The Struggle Of The Turtle To The Sea Part III
EXTD=
EXTT0=
EXTT1=
EXTT2=
EXTT3=
EXTT4=
EXTT5=
EXTT6=
EXTT7=
EXTT8=
EXTT9=
EXTT10=
PLAYORDER=
